<?xml version="1.0" encoding="utf-8"?>
<svg xmlns="http://www.w3.org/2000/svg" xmlns:xlink="http://www.w3.org/1999/xlink" width="600" height="400" viewBox="0 0 2400 1600">
<defs>
  <clipPath id="clip090">
    <rect x="0" y="0" width="2400" height="1600"/>
  </clipPath>
</defs>
<path clip-path="url(#clip090)" d="M0 1600 L2400 1600 L2400 0 L0 0  Z" fill="#ffffff" fill-rule="evenodd" fill-opacity="1"/>
<defs>
  <clipPath id="clip091">
    <rect x="480" y="0" width="1681" height="1600"/>
  </clipPath>
</defs>
<path clip-path="url(#clip090)" d="M219.866 1423.18 L2352.76 1423.18 L2352.76 123.472 L219.866 123.472  Z" fill="#ffffff" fill-rule="evenodd" fill-opacity="1"/>
<defs>
  <clipPath id="clip092">
    <rect x="219" y="123" width="2134" height="1301"/>
  </clipPath>
</defs>
<polyline clip-path="url(#clip092)" style="stroke:#000000; stroke-linecap:round; stroke-linejoin:round; stroke-width:2; stroke-opacity:0.1; fill:none" points="434.526,1423.18 434.526,123.472 "/>
<polyline clip-path="url(#clip092)" style="stroke:#000000; stroke-linecap:round; stroke-linejoin:round; stroke-width:2; stroke-opacity:0.1; fill:none" points="677.893,1423.18 677.893,123.472 "/>
<polyline clip-path="url(#clip092)" style="stroke:#000000; stroke-linecap:round; stroke-linejoin:round; stroke-width:2; stroke-opacity:0.1; fill:none" points="921.26,1423.18 921.26,123.472 "/>
<polyline clip-path="url(#clip092)" style="stroke:#000000; stroke-linecap:round; stroke-linejoin:round; stroke-width:2; stroke-opacity:0.1; fill:none" points="1164.63,1423.18 1164.63,123.472 "/>
<polyline clip-path="url(#clip092)" style="stroke:#000000; stroke-linecap:round; stroke-linejoin:round; stroke-width:2; stroke-opacity:0.1; fill:none" points="1407.99,1423.18 1407.99,123.472 "/>
<polyline clip-path="url(#clip092)" style="stroke:#000000; stroke-linecap:round; stroke-linejoin:round; stroke-width:2; stroke-opacity:0.1; fill:none" points="1651.36,1423.18 1651.36,123.472 "/>
<polyline clip-path="url(#clip092)" style="stroke:#000000; stroke-linecap:round; stroke-linejoin:round; stroke-width:2; stroke-opacity:0.1; fill:none" points="1894.73,1423.18 1894.73,123.472 "/>
<polyline clip-path="url(#clip092)" style="stroke:#000000; stroke-linecap:round; stroke-linejoin:round; stroke-width:2; stroke-opacity:0.1; fill:none" points="2138.1,1423.18 2138.1,123.472 "/>
<polyline clip-path="url(#clip090)" style="stroke:#000000; stroke-linecap:round; stroke-linejoin:round; stroke-width:4; stroke-opacity:1; fill:none" points="219.866,1423.18 2352.76,1423.18 "/>
<polyline clip-path="url(#clip090)" style="stroke:#000000; stroke-linecap:round; stroke-linejoin:round; stroke-width:4; stroke-opacity:1; fill:none" points="434.526,1423.18 434.526,1404.28 "/>
<polyline clip-path="url(#clip090)" style="stroke:#000000; stroke-linecap:round; stroke-linejoin:round; stroke-width:4; stroke-opacity:1; fill:none" points="677.893,1423.18 677.893,1404.28 "/>
<polyline clip-path="url(#clip090)" style="stroke:#000000; stroke-linecap:round; stroke-linejoin:round; stroke-width:4; stroke-opacity:1; fill:none" points="921.26,1423.18 921.26,1404.28 "/>
<polyline clip-path="url(#clip090)" style="stroke:#000000; stroke-linecap:round; stroke-linejoin:round; stroke-width:4; stroke-opacity:1; fill:none" points="1164.63,1423.18 1164.63,1404.28 "/>
<polyline clip-path="url(#clip090)" style="stroke:#000000; stroke-linecap:round; stroke-linejoin:round; stroke-width:4; stroke-opacity:1; fill:none" points="1407.99,1423.18 1407.99,1404.28 "/>
<polyline clip-path="url(#clip090)" style="stroke:#000000; stroke-linecap:round; stroke-linejoin:round; stroke-width:4; stroke-opacity:1; fill:none" points="1651.36,1423.18 1651.36,1404.28 "/>
<polyline clip-path="url(#clip090)" style="stroke:#000000; stroke-linecap:round; stroke-linejoin:round; stroke-width:4; stroke-opacity:1; fill:none" points="1894.73,1423.18 1894.73,1404.28 "/>
<polyline clip-path="url(#clip090)" style="stroke:#000000; stroke-linecap:round; stroke-linejoin:round; stroke-width:4; stroke-opacity:1; fill:none" points="2138.1,1423.18 2138.1,1404.28 "/>
<path clip-path="url(#clip090)" d="M424.908 1481.64 L432.547 1481.64 L432.547 1455.28 L424.237 1456.95 L424.237 1452.69 L432.5 1451.02 L437.176 1451.02 L437.176 1481.64 L444.815 1481.64 L444.815 1485.58 L424.908 1485.58 L424.908 1481.64 Z" fill="#000000" fill-rule="nonzero" fill-opacity="1" /><path clip-path="url(#clip090)" d="M672.546 1481.64 L688.865 1481.64 L688.865 1485.58 L666.921 1485.58 L666.921 1481.64 Q669.583 1478.89 674.166 1474.26 Q678.773 1469.61 679.953 1468.27 Q682.199 1465.74 683.078 1464.01 Q683.981 1462.25 683.981 1460.56 Q683.981 1457.8 682.037 1456.07 Q680.115 1454.33 677.013 1454.33 Q674.814 1454.33 672.361 1455.09 Q669.93 1455.86 667.152 1457.41 L667.152 1452.69 Q669.976 1451.55 672.43 1450.97 Q674.884 1450.39 676.921 1450.39 Q682.291 1450.39 685.486 1453.08 Q688.68 1455.77 688.68 1460.26 Q688.68 1462.39 687.87 1464.31 Q687.083 1466.2 684.976 1468.8 Q684.398 1469.47 681.296 1472.69 Q678.194 1475.88 672.546 1481.64 Z" fill="#000000" fill-rule="nonzero" fill-opacity="1" /><path clip-path="url(#clip090)" d="M925.508 1466.95 Q928.864 1467.66 930.739 1469.93 Q932.638 1472.2 932.638 1475.53 Q932.638 1480.65 929.119 1483.45 Q925.601 1486.25 919.119 1486.25 Q916.943 1486.25 914.628 1485.81 Q912.337 1485.39 909.883 1484.54 L909.883 1480.02 Q911.827 1481.16 914.142 1481.74 Q916.457 1482.32 918.98 1482.32 Q923.378 1482.32 925.67 1480.58 Q927.985 1478.84 927.985 1475.53 Q927.985 1472.48 925.832 1470.77 Q923.702 1469.03 919.883 1469.03 L915.855 1469.03 L915.855 1465.19 L920.068 1465.19 Q923.517 1465.19 925.346 1463.82 Q927.175 1462.43 927.175 1459.84 Q927.175 1457.18 925.276 1455.77 Q923.401 1454.33 919.883 1454.33 Q917.962 1454.33 915.763 1454.75 Q913.564 1455.16 910.925 1456.04 L910.925 1451.88 Q913.587 1451.14 915.902 1450.77 Q918.239 1450.39 920.3 1450.39 Q925.624 1450.39 928.726 1452.83 Q931.827 1455.23 931.827 1459.35 Q931.827 1462.22 930.184 1464.21 Q928.54 1466.18 925.508 1466.95 Z" fill="#000000" fill-rule="nonzero" fill-opacity="1" /><path clip-path="url(#clip090)" d="M1167.64 1455.09 L1155.83 1473.54 L1167.64 1473.54 L1167.64 1455.09 M1166.41 1451.02 L1172.29 1451.02 L1172.29 1473.54 L1177.22 1473.54 L1177.22 1477.43 L1172.29 1477.43 L1172.29 1485.58 L1167.64 1485.58 L1167.64 1477.43 L1152.03 1477.43 L1152.03 1472.92 L1166.41 1451.02 Z" fill="#000000" fill-rule="nonzero" fill-opacity="1" /><path clip-path="url(#clip090)" d="M1398.27 1451.02 L1416.63 1451.02 L1416.63 1454.96 L1402.55 1454.96 L1402.55 1463.43 Q1403.57 1463.08 1404.59 1462.92 Q1405.61 1462.73 1406.63 1462.73 Q1412.42 1462.73 1415.8 1465.9 Q1419.18 1469.08 1419.18 1474.49 Q1419.18 1480.07 1415.7 1483.17 Q1412.23 1486.25 1405.91 1486.25 Q1403.74 1486.25 1401.47 1485.88 Q1399.22 1485.51 1396.81 1484.77 L1396.81 1480.07 Q1398.9 1481.2 1401.12 1481.76 Q1403.34 1482.32 1405.82 1482.32 Q1409.82 1482.32 1412.16 1480.21 Q1414.5 1478.1 1414.5 1474.49 Q1414.5 1470.88 1412.16 1468.77 Q1409.82 1466.67 1405.82 1466.67 Q1403.94 1466.67 1402.07 1467.08 Q1400.22 1467.5 1398.27 1468.38 L1398.27 1451.02 Z" fill="#000000" fill-rule="nonzero" fill-opacity="1" /><path clip-path="url(#clip090)" d="M1651.77 1466.44 Q1648.62 1466.44 1646.77 1468.59 Q1644.94 1470.74 1644.94 1474.49 Q1644.94 1478.22 1646.77 1480.39 Q1648.62 1482.55 1651.77 1482.55 Q1654.92 1482.55 1656.74 1480.39 Q1658.6 1478.22 1658.6 1474.49 Q1658.6 1470.74 1656.74 1468.59 Q1654.92 1466.44 1651.77 1466.44 M1661.05 1451.78 L1661.05 1456.04 Q1659.29 1455.21 1657.48 1454.77 Q1655.7 1454.33 1653.94 1454.33 Q1649.31 1454.33 1646.86 1457.45 Q1644.43 1460.58 1644.08 1466.9 Q1645.45 1464.89 1647.51 1463.82 Q1649.57 1462.73 1652.04 1462.73 Q1657.25 1462.73 1660.26 1465.9 Q1663.29 1469.05 1663.29 1474.49 Q1663.29 1479.82 1660.15 1483.03 Q1657 1486.25 1651.77 1486.25 Q1645.77 1486.25 1642.6 1481.67 Q1639.43 1477.06 1639.43 1468.33 Q1639.43 1460.14 1643.32 1455.28 Q1647.21 1450.39 1653.76 1450.39 Q1655.52 1450.39 1657.3 1450.74 Q1659.1 1451.09 1661.05 1451.78 Z" fill="#000000" fill-rule="nonzero" fill-opacity="1" /><path clip-path="url(#clip090)" d="M1883.62 1451.02 L1905.84 1451.02 L1905.84 1453.01 L1893.29 1485.58 L1888.41 1485.58 L1900.22 1454.96 L1883.62 1454.96 L1883.62 1451.02 Z" fill="#000000" fill-rule="nonzero" fill-opacity="1" /><path clip-path="url(#clip090)" d="M2138.1 1469.17 Q2134.76 1469.17 2132.84 1470.95 Q2130.94 1472.73 2130.94 1475.86 Q2130.94 1478.98 2132.84 1480.77 Q2134.76 1482.55 2138.1 1482.55 Q2141.43 1482.55 2143.35 1480.77 Q2145.27 1478.96 2145.27 1475.86 Q2145.27 1472.73 2143.35 1470.95 Q2141.45 1469.17 2138.1 1469.17 M2133.42 1467.18 Q2130.41 1466.44 2128.72 1464.38 Q2127.05 1462.32 2127.05 1459.35 Q2127.05 1455.21 2129.99 1452.8 Q2132.96 1450.39 2138.1 1450.39 Q2143.26 1450.39 2146.2 1452.8 Q2149.14 1455.21 2149.14 1459.35 Q2149.14 1462.32 2147.45 1464.38 Q2145.78 1466.44 2142.8 1467.18 Q2146.17 1467.96 2148.05 1470.26 Q2149.95 1472.55 2149.95 1475.86 Q2149.95 1480.88 2146.87 1483.57 Q2143.81 1486.25 2138.1 1486.25 Q2132.38 1486.25 2129.3 1483.57 Q2126.24 1480.88 2126.24 1475.86 Q2126.24 1472.55 2128.14 1470.26 Q2130.04 1467.96 2133.42 1467.18 M2131.71 1459.79 Q2131.71 1462.48 2133.37 1463.98 Q2135.06 1465.49 2138.1 1465.49 Q2141.11 1465.49 2142.8 1463.98 Q2144.51 1462.48 2144.51 1459.79 Q2144.51 1457.11 2142.8 1455.6 Q2141.11 1454.1 2138.1 1454.1 Q2135.06 1454.1 2133.37 1455.6 Q2131.71 1457.11 2131.71 1459.79 Z" fill="#000000" fill-rule="nonzero" fill-opacity="1" /><path clip-path="url(#clip090)" d="M1298.07 1532.4 L1285.18 1549.74 L1298.74 1568.04 L1291.83 1568.04 L1281.46 1554.04 L1271.08 1568.04 L1264.17 1568.04 L1278.02 1549.39 L1265.35 1532.4 L1272.26 1532.4 L1281.71 1545.1 L1291.16 1532.4 L1298.07 1532.4 Z" fill="#000000" fill-rule="nonzero" fill-opacity="1" /><path clip-path="url(#clip090)" d="M1304.76 1548.09 L1308.45 1548.09 L1308.45 1568.04 L1304.76 1568.04 L1304.76 1548.09 M1304.76 1540.32 L1308.45 1540.32 L1308.45 1544.46 L1304.76 1544.46 L1304.76 1540.32 Z" fill="#000000" fill-rule="nonzero" fill-opacity="1" /><polyline clip-path="url(#clip092)" style="stroke:#000000; stroke-linecap:round; stroke-linejoin:round; stroke-width:2; stroke-opacity:0.1; fill:none" points="219.866,1423.18 2352.76,1423.18 "/>
<polyline clip-path="url(#clip092)" style="stroke:#000000; stroke-linecap:round; stroke-linejoin:round; stroke-width:2; stroke-opacity:0.1; fill:none" points="219.866,1219.88 2352.76,1219.88 "/>
<polyline clip-path="url(#clip092)" style="stroke:#000000; stroke-linecap:round; stroke-linejoin:round; stroke-width:2; stroke-opacity:0.1; fill:none" points="219.866,1016.58 2352.76,1016.58 "/>
<polyline clip-path="url(#clip092)" style="stroke:#000000; stroke-linecap:round; stroke-linejoin:round; stroke-width:2; stroke-opacity:0.1; fill:none" points="219.866,813.287 2352.76,813.287 "/>
<polyline clip-path="url(#clip092)" style="stroke:#000000; stroke-linecap:round; stroke-linejoin:round; stroke-width:2; stroke-opacity:0.1; fill:none" points="219.866,609.99 2352.76,609.99 "/>
<polyline clip-path="url(#clip092)" style="stroke:#000000; stroke-linecap:round; stroke-linejoin:round; stroke-width:2; stroke-opacity:0.1; fill:none" points="219.866,406.693 2352.76,406.693 "/>
<polyline clip-path="url(#clip092)" style="stroke:#000000; stroke-linecap:round; stroke-linejoin:round; stroke-width:2; stroke-opacity:0.1; fill:none" points="219.866,203.395 2352.76,203.395 "/>
<polyline clip-path="url(#clip090)" style="stroke:#000000; stroke-linecap:round; stroke-linejoin:round; stroke-width:4; stroke-opacity:1; fill:none" points="219.866,1423.18 219.866,123.472 "/>
<polyline clip-path="url(#clip090)" style="stroke:#000000; stroke-linecap:round; stroke-linejoin:round; stroke-width:4; stroke-opacity:1; fill:none" points="219.866,1423.18 238.764,1423.18 "/>
<polyline clip-path="url(#clip090)" style="stroke:#000000; stroke-linecap:round; stroke-linejoin:round; stroke-width:4; stroke-opacity:1; fill:none" points="219.866,1219.88 238.764,1219.88 "/>
<polyline clip-path="url(#clip090)" style="stroke:#000000; stroke-linecap:round; stroke-linejoin:round; stroke-width:4; stroke-opacity:1; fill:none" points="219.866,1016.58 238.764,1016.58 "/>
<polyline clip-path="url(#clip090)" style="stroke:#000000; stroke-linecap:round; stroke-linejoin:round; stroke-width:4; stroke-opacity:1; fill:none" points="219.866,813.287 238.764,813.287 "/>
<polyline clip-path="url(#clip090)" style="stroke:#000000; stroke-linecap:round; stroke-linejoin:round; stroke-width:4; stroke-opacity:1; fill:none" points="219.866,609.99 238.764,609.99 "/>
<polyline clip-path="url(#clip090)" style="stroke:#000000; stroke-linecap:round; stroke-linejoin:round; stroke-width:4; stroke-opacity:1; fill:none" points="219.866,406.693 238.764,406.693 "/>
<polyline clip-path="url(#clip090)" style="stroke:#000000; stroke-linecap:round; stroke-linejoin:round; stroke-width:4; stroke-opacity:1; fill:none" points="219.866,203.395 238.764,203.395 "/>
<path clip-path="url(#clip090)" d="M126.691 1408.98 Q123.08 1408.98 121.251 1412.54 Q119.445 1416.08 119.445 1423.21 Q119.445 1430.32 121.251 1433.89 Q123.08 1437.43 126.691 1437.43 Q130.325 1437.43 132.13 1433.89 Q133.959 1430.32 133.959 1423.21 Q133.959 1416.08 132.13 1412.54 Q130.325 1408.98 126.691 1408.98 M126.691 1405.27 Q132.501 1405.27 135.556 1409.88 Q138.635 1414.46 138.635 1423.21 Q138.635 1431.94 135.556 1436.55 Q132.501 1441.13 126.691 1441.13 Q120.88 1441.13 117.802 1436.55 Q114.746 1431.94 114.746 1423.21 Q114.746 1414.46 117.802 1409.88 Q120.88 1405.27 126.691 1405.27 Z" fill="#000000" fill-rule="nonzero" fill-opacity="1" /><path clip-path="url(#clip090)" d="M146.853 1434.58 L151.737 1434.58 L151.737 1440.46 L146.853 1440.46 L146.853 1434.58 Z" fill="#000000" fill-rule="nonzero" fill-opacity="1" /><path clip-path="url(#clip090)" d="M171.922 1408.98 Q168.311 1408.98 166.482 1412.54 Q164.677 1416.08 164.677 1423.21 Q164.677 1430.32 166.482 1433.89 Q168.311 1437.43 171.922 1437.43 Q175.556 1437.43 177.362 1433.89 Q179.19 1430.32 179.19 1423.21 Q179.19 1416.08 177.362 1412.54 Q175.556 1408.98 171.922 1408.98 M171.922 1405.27 Q177.732 1405.27 180.788 1409.88 Q183.866 1414.46 183.866 1423.21 Q183.866 1431.94 180.788 1436.55 Q177.732 1441.13 171.922 1441.13 Q166.112 1441.13 163.033 1436.55 Q159.978 1431.94 159.978 1423.21 Q159.978 1414.46 163.033 1409.88 Q166.112 1405.27 171.922 1405.27 Z" fill="#000000" fill-rule="nonzero" fill-opacity="1" /><path clip-path="url(#clip090)" d="M127.917 1205.68 Q124.306 1205.68 122.478 1209.25 Q120.672 1212.79 120.672 1219.92 Q120.672 1227.02 122.478 1230.59 Q124.306 1234.13 127.917 1234.13 Q131.552 1234.13 133.357 1230.59 Q135.186 1227.02 135.186 1219.92 Q135.186 1212.79 133.357 1209.25 Q131.552 1205.68 127.917 1205.68 M127.917 1201.98 Q133.728 1201.98 136.783 1206.58 Q139.862 1211.17 139.862 1219.92 Q139.862 1228.64 136.783 1233.25 Q133.728 1237.83 127.917 1237.83 Q122.107 1237.83 119.029 1233.25 Q115.973 1228.64 115.973 1219.92 Q115.973 1211.17 119.029 1206.58 Q122.107 1201.98 127.917 1201.98 Z" fill="#000000" fill-rule="nonzero" fill-opacity="1" /><path clip-path="url(#clip090)" d="M148.079 1231.28 L152.964 1231.28 L152.964 1237.16 L148.079 1237.16 L148.079 1231.28 Z" fill="#000000" fill-rule="nonzero" fill-opacity="1" /><path clip-path="url(#clip090)" d="M163.959 1233.23 L171.598 1233.23 L171.598 1206.86 L163.288 1208.53 L163.288 1204.27 L171.552 1202.6 L176.227 1202.6 L176.227 1233.23 L183.866 1233.23 L183.866 1237.16 L163.959 1237.16 L163.959 1233.23 Z" fill="#000000" fill-rule="nonzero" fill-opacity="1" /><path clip-path="url(#clip090)" d="M128.288 1002.38 Q124.677 1002.38 122.848 1005.95 Q121.043 1009.49 121.043 1016.62 Q121.043 1023.73 122.848 1027.29 Q124.677 1030.83 128.288 1030.83 Q131.922 1030.83 133.728 1027.29 Q135.556 1023.73 135.556 1016.62 Q135.556 1009.49 133.728 1005.95 Q131.922 1002.38 128.288 1002.38 M128.288 998.68 Q134.098 998.68 137.154 1003.29 Q140.232 1007.87 140.232 1016.62 Q140.232 1025.35 137.154 1029.95 Q134.098 1034.54 128.288 1034.54 Q122.478 1034.54 119.399 1029.95 Q116.343 1025.35 116.343 1016.62 Q116.343 1007.87 119.399 1003.29 Q122.478 998.68 128.288 998.68 Z" fill="#000000" fill-rule="nonzero" fill-opacity="1" /><path clip-path="url(#clip090)" d="M148.45 1027.99 L153.334 1027.99 L153.334 1033.86 L148.45 1033.86 L148.45 1027.99 Z" fill="#000000" fill-rule="nonzero" fill-opacity="1" /><path clip-path="url(#clip090)" d="M167.547 1029.93 L183.866 1029.93 L183.866 1033.86 L161.922 1033.86 L161.922 1029.93 Q164.584 1027.18 169.167 1022.55 Q173.774 1017.89 174.954 1016.55 Q177.2 1014.03 178.079 1012.29 Q178.982 1010.53 178.982 1008.84 Q178.982 1006.09 177.038 1004.35 Q175.116 1002.62 172.014 1002.62 Q169.815 1002.62 167.362 1003.38 Q164.931 1004.14 162.153 1005.69 L162.153 1000.97 Q164.977 999.837 167.431 999.259 Q169.885 998.68 171.922 998.68 Q177.292 998.68 180.487 1001.37 Q183.681 1004.05 183.681 1008.54 Q183.681 1010.67 182.871 1012.59 Q182.084 1014.49 179.977 1017.08 Q179.399 1017.75 176.297 1020.97 Q173.195 1024.17 167.547 1029.93 Z" fill="#000000" fill-rule="nonzero" fill-opacity="1" /><path clip-path="url(#clip090)" d="M127.339 799.086 Q123.728 799.086 121.899 802.651 Q120.093 806.193 120.093 813.322 Q120.093 820.429 121.899 823.993 Q123.728 827.535 127.339 827.535 Q130.973 827.535 132.779 823.993 Q134.607 820.429 134.607 813.322 Q134.607 806.193 132.779 802.651 Q130.973 799.086 127.339 799.086 M127.339 795.382 Q133.149 795.382 136.204 799.989 Q139.283 804.572 139.283 813.322 Q139.283 822.049 136.204 826.655 Q133.149 831.239 127.339 831.239 Q121.529 831.239 118.45 826.655 Q115.394 822.049 115.394 813.322 Q115.394 804.572 118.45 799.989 Q121.529 795.382 127.339 795.382 Z" fill="#000000" fill-rule="nonzero" fill-opacity="1" /><path clip-path="url(#clip090)" d="M147.501 824.688 L152.385 824.688 L152.385 830.567 L147.501 830.567 L147.501 824.688 Z" fill="#000000" fill-rule="nonzero" fill-opacity="1" /><path clip-path="url(#clip090)" d="M176.737 811.933 Q180.093 812.651 181.968 814.919 Q183.866 817.188 183.866 820.521 Q183.866 825.637 180.348 828.438 Q176.829 831.239 170.348 831.239 Q168.172 831.239 165.857 830.799 Q163.565 830.382 161.112 829.526 L161.112 825.012 Q163.056 826.146 165.371 826.725 Q167.686 827.304 170.209 827.304 Q174.607 827.304 176.899 825.568 Q179.214 823.831 179.214 820.521 Q179.214 817.466 177.061 815.753 Q174.931 814.017 171.112 814.017 L167.084 814.017 L167.084 810.174 L171.297 810.174 Q174.746 810.174 176.575 808.808 Q178.403 807.419 178.403 804.827 Q178.403 802.165 176.505 800.753 Q174.63 799.318 171.112 799.318 Q169.19 799.318 166.991 799.734 Q164.792 800.151 162.153 801.031 L162.153 796.864 Q164.815 796.123 167.13 795.753 Q169.468 795.382 171.528 795.382 Q176.852 795.382 179.954 797.813 Q183.056 800.22 183.056 804.341 Q183.056 807.211 181.413 809.202 Q179.769 811.169 176.737 811.933 Z" fill="#000000" fill-rule="nonzero" fill-opacity="1" /><path clip-path="url(#clip090)" d="M126.205 595.789 Q122.593 595.789 120.765 599.354 Q118.959 602.895 118.959 610.025 Q118.959 617.131 120.765 620.696 Q122.593 624.238 126.205 624.238 Q129.839 624.238 131.644 620.696 Q133.473 617.131 133.473 610.025 Q133.473 602.895 131.644 599.354 Q129.839 595.789 126.205 595.789 M126.205 592.085 Q132.015 592.085 135.07 596.692 Q138.149 601.275 138.149 610.025 Q138.149 618.752 135.07 623.358 Q132.015 627.941 126.205 627.941 Q120.394 627.941 117.316 623.358 Q114.26 618.752 114.26 610.025 Q114.26 601.275 117.316 596.692 Q120.394 592.085 126.205 592.085 Z" fill="#000000" fill-rule="nonzero" fill-opacity="1" /><path clip-path="url(#clip090)" d="M146.366 621.39 L151.251 621.39 L151.251 627.27 L146.366 627.27 L146.366 621.39 Z" fill="#000000" fill-rule="nonzero" fill-opacity="1" /><path clip-path="url(#clip090)" d="M174.283 596.784 L162.477 615.233 L174.283 615.233 L174.283 596.784 M173.056 592.71 L178.936 592.71 L178.936 615.233 L183.866 615.233 L183.866 619.122 L178.936 619.122 L178.936 627.27 L174.283 627.27 L174.283 619.122 L158.681 619.122 L158.681 614.608 L173.056 592.71 Z" fill="#000000" fill-rule="nonzero" fill-opacity="1" /><path clip-path="url(#clip090)" d="M127.686 392.491 Q124.075 392.491 122.246 396.056 Q120.441 399.598 120.441 406.727 Q120.441 413.834 122.246 417.399 Q124.075 420.94 127.686 420.94 Q131.32 420.94 133.126 417.399 Q134.954 413.834 134.954 406.727 Q134.954 399.598 133.126 396.056 Q131.32 392.491 127.686 392.491 M127.686 388.788 Q133.496 388.788 136.552 393.394 Q139.63 397.977 139.63 406.727 Q139.63 415.454 136.552 420.061 Q133.496 424.644 127.686 424.644 Q121.876 424.644 118.797 420.061 Q115.742 415.454 115.742 406.727 Q115.742 397.977 118.797 393.394 Q121.876 388.788 127.686 388.788 Z" fill="#000000" fill-rule="nonzero" fill-opacity="1" /><path clip-path="url(#clip090)" d="M147.848 418.093 L152.732 418.093 L152.732 423.973 L147.848 423.973 L147.848 418.093 Z" fill="#000000" fill-rule="nonzero" fill-opacity="1" /><path clip-path="url(#clip090)" d="M162.964 389.413 L181.32 389.413 L181.32 393.348 L167.246 393.348 L167.246 401.82 Q168.264 401.473 169.283 401.311 Q170.302 401.125 171.32 401.125 Q177.107 401.125 180.487 404.297 Q183.866 407.468 183.866 412.885 Q183.866 418.463 180.394 421.565 Q176.922 424.644 170.602 424.644 Q168.427 424.644 166.158 424.274 Q163.913 423.903 161.505 423.162 L161.505 418.463 Q163.589 419.598 165.811 420.153 Q168.033 420.709 170.51 420.709 Q174.514 420.709 176.852 418.602 Q179.19 416.496 179.19 412.885 Q179.19 409.274 176.852 407.167 Q174.514 405.061 170.51 405.061 Q168.635 405.061 166.76 405.477 Q164.908 405.894 162.964 406.774 L162.964 389.413 Z" fill="#000000" fill-rule="nonzero" fill-opacity="1" /><path clip-path="url(#clip090)" d="M126.529 189.194 Q122.918 189.194 121.089 192.759 Q119.283 196.3 119.283 203.43 Q119.283 210.536 121.089 214.101 Q122.918 217.643 126.529 217.643 Q130.163 217.643 131.968 214.101 Q133.797 210.536 133.797 203.43 Q133.797 196.3 131.968 192.759 Q130.163 189.194 126.529 189.194 M126.529 185.49 Q132.339 185.49 135.394 190.097 Q138.473 194.68 138.473 203.43 Q138.473 212.157 135.394 216.763 Q132.339 221.346 126.529 221.346 Q120.718 221.346 117.64 216.763 Q114.584 212.157 114.584 203.43 Q114.584 194.68 117.64 190.097 Q120.718 185.49 126.529 185.49 Z" fill="#000000" fill-rule="nonzero" fill-opacity="1" /><path clip-path="url(#clip090)" d="M146.691 214.796 L151.575 214.796 L151.575 220.675 L146.691 220.675 L146.691 214.796 Z" fill="#000000" fill-rule="nonzero" fill-opacity="1" /><path clip-path="url(#clip090)" d="M172.339 201.532 Q169.19 201.532 167.339 203.684 Q165.51 205.837 165.51 209.587 Q165.51 213.314 167.339 215.49 Q169.19 217.643 172.339 217.643 Q175.487 217.643 177.315 215.49 Q179.167 213.314 179.167 209.587 Q179.167 205.837 177.315 203.684 Q175.487 201.532 172.339 201.532 M181.621 186.879 L181.621 191.138 Q179.862 190.305 178.056 189.865 Q176.274 189.425 174.514 189.425 Q169.885 189.425 167.431 192.55 Q165.001 195.675 164.653 201.995 Q166.019 199.981 168.079 198.916 Q170.139 197.828 172.616 197.828 Q177.825 197.828 180.834 200.999 Q183.866 204.147 183.866 209.587 Q183.866 214.911 180.718 218.129 Q177.57 221.346 172.339 221.346 Q166.343 221.346 163.172 216.763 Q160.001 212.157 160.001 203.43 Q160.001 195.235 163.89 190.374 Q167.778 185.49 174.329 185.49 Q176.089 185.49 177.871 185.837 Q179.676 186.185 181.621 186.879 Z" fill="#000000" fill-rule="nonzero" fill-opacity="1" /><path clip-path="url(#clip090)" d="M22.818 1189.39 L46.4666 1198.11 L46.4666 1180.64 L22.818 1189.39 M16.4842 1193.02 L16.4842 1185.73 L64.0042 1167.62 L64.0042 1174.3 L51.8138 1178.63 L51.8138 1200.05 L64.0042 1204.38 L64.0042 1211.16 L16.4842 1193.02 Z" fill="#000000" fill-rule="nonzero" fill-opacity="1" /><path clip-path="url(#clip090)" d="M28.3562 1168.95 L28.3562 1162.75 L58.275 1151.61 L28.3562 1140.47 L28.3562 1134.26 L64.0042 1147.63 L64.0042 1155.59 L28.3562 1168.95 Z" fill="#000000" fill-rule="nonzero" fill-opacity="1" /><path clip-path="url(#clip090)" d="M44.7161 1095.69 L47.5806 1095.69 L47.5806 1122.61 Q53.6281 1122.23 56.8109 1118.98 Q59.9619 1115.71 59.9619 1109.88 Q59.9619 1106.51 59.1344 1103.36 Q58.3069 1100.17 56.6518 1097.05 L62.1899 1097.05 Q63.5267 1100.21 64.227 1103.52 Q64.9272 1106.83 64.9272 1110.23 Q64.9272 1118.76 59.9619 1123.76 Q54.9967 1128.72 46.5303 1128.72 Q37.7774 1128.72 32.6531 1124.01 Q27.4968 1119.27 27.4968 1111.25 Q27.4968 1104.06 32.1438 1099.89 Q36.7589 1095.69 44.7161 1095.69 M42.9973 1101.54 Q38.1912 1101.61 35.3266 1104.25 Q32.4621 1106.86 32.4621 1111.19 Q32.4621 1116.09 35.2312 1119.05 Q38.0002 1121.98 43.0292 1122.42 L42.9973 1101.54 Z" fill="#000000" fill-rule="nonzero" fill-opacity="1" /><path clip-path="url(#clip090)" d="M33.8307 1065.42 Q33.2578 1066.4 33.0032 1067.58 Q32.7167 1068.73 32.7167 1070.13 Q32.7167 1075.09 35.9632 1077.77 Q39.1779 1080.41 45.2253 1080.41 L64.0042 1080.41 L64.0042 1086.3 L28.3562 1086.3 L28.3562 1080.41 L33.8944 1080.41 Q30.6479 1078.56 29.0883 1075.6 Q27.4968 1072.64 27.4968 1068.41 Q27.4968 1067.8 27.5923 1067.07 Q27.656 1066.34 27.8151 1065.45 L33.8307 1065.42 Z" fill="#000000" fill-rule="nonzero" fill-opacity="1" /><path clip-path="url(#clip090)" d="M46.0847 1043.07 Q46.0847 1050.17 47.7079 1052.91 Q49.3312 1055.65 53.2461 1055.65 Q56.3653 1055.65 58.2114 1053.61 Q60.0256 1051.54 60.0256 1048.01 Q60.0256 1043.14 56.5881 1040.21 Q53.1188 1037.25 47.3897 1037.25 L46.0847 1037.25 L46.0847 1043.07 M43.6657 1031.39 L64.0042 1031.39 L64.0042 1037.25 L58.5933 1037.25 Q61.8398 1039.25 63.3994 1042.25 Q64.9272 1045.24 64.9272 1049.57 Q64.9272 1055.04 61.8716 1058.29 Q58.7843 1061.5 53.6281 1061.5 Q47.6125 1061.5 44.5569 1057.49 Q41.5014 1053.45 41.5014 1045.46 L41.5014 1037.25 L40.9285 1037.25 Q36.8862 1037.25 34.6901 1039.92 Q32.4621 1042.56 32.4621 1047.37 Q32.4621 1050.43 33.1941 1053.32 Q33.9262 1056.22 35.3903 1058.89 L29.9795 1058.89 Q28.7381 1055.68 28.1334 1052.65 Q27.4968 1049.63 27.4968 1046.76 Q27.4968 1039.03 31.5072 1035.21 Q35.5176 1031.39 43.6657 1031.39 Z" fill="#000000" fill-rule="nonzero" fill-opacity="1" /><path clip-path="url(#clip090)" d="M45.7664 995.871 Q39.4007 995.871 35.8996 998.513 Q32.3984 1001.12 32.3984 1005.87 Q32.3984 1010.58 35.8996 1013.22 Q39.4007 1015.83 45.7664 1015.83 Q52.1003 1015.83 55.6014 1013.22 Q59.1026 1010.58 59.1026 1005.87 Q59.1026 1001.12 55.6014 998.513 Q52.1003 995.871 45.7664 995.871 M59.58 990.015 Q68.683 990.015 73.1071 994.057 Q77.5631 998.099 77.5631 1006.44 Q77.5631 1009.53 77.0857 1012.26 Q76.6401 1015 75.6852 1017.58 L69.9879 1017.58 Q71.3884 1015 72.0568 1012.49 Q72.7252 1009.97 72.7252 1007.36 Q72.7252 1001.6 69.7015 998.736 Q66.7096 995.871 60.6303 995.871 L57.7339 995.871 Q60.885 997.685 62.4446 1000.52 Q64.0042 1003.35 64.0042 1007.3 Q64.0042 1013.85 59.0071 1017.86 Q54.01 1021.87 45.7664 1021.87 Q37.491 1021.87 32.4939 1017.86 Q27.4968 1013.85 27.4968 1007.3 Q27.4968 1003.35 29.0564 1000.52 Q30.616 997.685 33.7671 995.871 L28.3562 995.871 L28.3562 990.015 L59.58 990.015 Z" fill="#000000" fill-rule="nonzero" fill-opacity="1" /><path clip-path="url(#clip090)" d="M44.7161 947.46 L47.5806 947.46 L47.5806 974.387 Q53.6281 974.005 56.8109 970.758 Q59.9619 967.48 59.9619 961.655 Q59.9619 958.282 59.1344 955.131 Q58.3069 951.948 56.6518 948.829 L62.1899 948.829 Q63.5267 951.98 64.227 955.29 Q64.9272 958.6 64.9272 962.006 Q64.9272 970.536 59.9619 975.533 Q54.9967 980.498 46.5303 980.498 Q37.7774 980.498 32.6531 975.787 Q27.4968 971.045 27.4968 963.024 Q27.4968 955.831 32.1438 951.661 Q36.7589 947.46 44.7161 947.46 M42.9973 953.316 Q38.1912 953.38 35.3266 956.022 Q32.4621 958.632 32.4621 962.96 Q32.4621 967.862 35.2312 970.822 Q38.0002 973.75 43.0292 974.196 L42.9973 953.316 Z" fill="#000000" fill-rule="nonzero" fill-opacity="1" /><path clip-path="url(#clip090)" d="M22.818 900.99 L46.4666 909.711 L46.4666 892.237 L22.818 900.99 M16.4842 904.619 L16.4842 897.33 L64.0042 879.22 L64.0042 885.904 L51.8138 890.232 L51.8138 911.653 L64.0042 915.981 L64.0042 922.761 L16.4842 904.619 Z" fill="#000000" fill-rule="nonzero" fill-opacity="1" /><path clip-path="url(#clip090)" d="M46.212 846.945 Q39.7508 846.945 36.0905 849.619 Q32.3984 852.261 32.3984 856.908 Q32.3984 861.555 36.0905 864.228 Q39.7508 866.87 46.212 866.87 Q52.6732 866.87 56.3653 864.228 Q60.0256 861.555 60.0256 856.908 Q60.0256 852.261 56.3653 849.619 Q52.6732 846.945 46.212 846.945 M33.7671 866.87 Q30.5842 865.024 29.0564 862.223 Q27.4968 859.39 27.4968 855.475 Q27.4968 848.982 32.6531 844.94 Q37.8093 840.866 46.212 840.866 Q54.6147 840.866 59.771 844.94 Q64.9272 848.982 64.9272 855.475 Q64.9272 859.39 63.3994 862.223 Q61.8398 865.024 58.657 866.87 L64.0042 866.87 L64.0042 872.758 L14.479 872.758 L14.479 866.87 L33.7671 866.87 Z" fill="#000000" fill-rule="nonzero" fill-opacity="1" /><path clip-path="url(#clip090)" d="M29.4065 808.433 L34.9447 808.433 Q33.6716 810.915 33.035 813.589 Q32.3984 816.263 32.3984 819.127 Q32.3984 823.488 33.7352 825.684 Q35.072 827.848 37.7456 827.848 Q39.7826 827.848 40.9603 826.289 Q42.1061 824.729 43.1565 820.018 L43.6021 818.013 Q44.9389 811.775 47.3897 809.165 Q49.8086 806.523 54.1691 806.523 Q59.1344 806.523 62.0308 810.47 Q64.9272 814.385 64.9272 821.26 Q64.9272 824.124 64.3543 827.244 Q63.8132 830.331 62.6992 833.768 L56.6518 833.768 Q58.3387 830.522 59.198 827.371 Q60.0256 824.22 60.0256 821.132 Q60.0256 816.995 58.6251 814.767 Q57.1929 812.539 54.6147 812.539 Q52.2276 812.539 50.9545 814.162 Q49.6813 815.753 48.5037 821.196 L48.0262 823.233 Q46.8804 828.676 44.5251 831.095 Q42.138 833.514 38.0002 833.514 Q32.9713 833.514 30.2341 829.949 Q27.4968 826.384 27.4968 819.827 Q27.4968 816.581 27.9743 813.716 Q28.4517 810.852 29.4065 808.433 Z" fill="#000000" fill-rule="nonzero" fill-opacity="1" /><path clip-path="url(#clip090)" d="M32.4621 783.384 Q32.4621 788.094 36.1542 790.832 Q39.8145 793.569 46.212 793.569 Q52.6095 793.569 56.3017 790.864 Q59.9619 788.126 59.9619 783.384 Q59.9619 778.705 56.2698 775.968 Q52.5777 773.23 46.212 773.23 Q39.8781 773.23 36.186 775.968 Q32.4621 778.705 32.4621 783.384 M27.4968 783.384 Q27.4968 775.745 32.4621 771.384 Q37.4273 767.024 46.212 767.024 Q54.9649 767.024 59.9619 771.384 Q64.9272 775.745 64.9272 783.384 Q64.9272 791.054 59.9619 795.415 Q54.9649 799.744 46.212 799.744 Q37.4273 799.744 32.4621 795.415 Q27.4968 791.054 27.4968 783.384 Z" fill="#000000" fill-rule="nonzero" fill-opacity="1" /><path clip-path="url(#clip090)" d="M14.479 757.316 L14.479 751.46 L64.0042 751.46 L64.0042 757.316 L14.479 757.316 Z" fill="#000000" fill-rule="nonzero" fill-opacity="1" /><path clip-path="url(#clip090)" d="M49.9359 739.811 L28.3562 739.811 L28.3562 733.954 L49.7131 733.954 Q54.7739 733.954 57.3202 731.981 Q59.8346 730.007 59.8346 726.061 Q59.8346 721.318 56.8109 718.581 Q53.7872 715.812 48.5673 715.812 L28.3562 715.812 L28.3562 709.955 L64.0042 709.955 L64.0042 715.812 L58.5296 715.812 Q61.7762 717.944 63.3676 720.777 Q64.9272 723.578 64.9272 727.302 Q64.9272 733.445 61.1078 736.628 Q57.2883 739.811 49.9359 739.811 M27.4968 725.074 L27.4968 725.074 Z" fill="#000000" fill-rule="nonzero" fill-opacity="1" /><path clip-path="url(#clip090)" d="M18.2347 692.1 L28.3562 692.1 L28.3562 680.037 L32.9077 680.037 L32.9077 692.1 L52.2594 692.1 Q56.6199 692.1 57.8613 690.922 Q59.1026 689.712 59.1026 686.052 L59.1026 680.037 L64.0042 680.037 L64.0042 686.052 Q64.0042 692.832 61.4897 695.41 Q58.9434 697.988 52.2594 697.988 L32.9077 697.988 L32.9077 702.285 L28.3562 702.285 L28.3562 697.988 L18.2347 697.988 L18.2347 692.1 Z" fill="#000000" fill-rule="nonzero" fill-opacity="1" /><path clip-path="url(#clip090)" d="M44.7161 641.842 L47.5806 641.842 L47.5806 668.769 Q53.6281 668.387 56.8109 665.141 Q59.9619 661.862 59.9619 656.038 Q59.9619 652.664 59.1344 649.513 Q58.3069 646.33 56.6518 643.211 L62.1899 643.211 Q63.5267 646.362 64.227 649.672 Q64.9272 652.982 64.9272 656.388 Q64.9272 664.918 59.9619 669.915 Q54.9967 674.88 46.5303 674.88 Q37.7774 674.88 32.6531 670.17 Q27.4968 665.427 27.4968 657.406 Q27.4968 650.213 32.1438 646.044 Q36.7589 641.842 44.7161 641.842 M42.9973 647.699 Q38.1912 647.762 35.3266 650.404 Q32.4621 653.014 32.4621 657.343 Q32.4621 662.244 35.2312 665.204 Q38.0002 668.133 43.0292 668.578 L42.9973 647.699 Z" fill="#000000" fill-rule="nonzero" fill-opacity="1" /><path clip-path="url(#clip090)" d="M57.2247 578.854 L44.4614 578.854 L44.4614 589.357 L39.1779 589.357 L39.1779 572.488 L59.58 572.488 Q62.2218 576.212 63.5904 580.7 Q64.9272 585.188 64.9272 590.28 Q64.9272 601.42 58.4342 607.722 Q51.9093 613.992 40.2919 613.992 Q28.6427 613.992 22.1496 607.722 Q15.6248 601.42 15.6248 590.28 Q15.6248 585.633 16.7706 581.464 Q17.9164 577.262 20.1444 573.729 L26.9876 573.729 Q23.9639 577.294 22.4361 581.304 Q20.9083 585.315 20.9083 589.739 Q20.9083 598.46 25.7781 602.852 Q30.6479 607.213 40.2919 607.213 Q49.9041 607.213 54.7739 602.852 Q59.6436 598.46 59.6436 589.739 Q59.6436 586.333 59.0707 583.66 Q58.466 580.986 57.2247 578.854 Z" fill="#000000" fill-rule="nonzero" fill-opacity="1" /><path clip-path="url(#clip090)" d="M33.8307 540.341 Q33.2578 541.328 33.0032 542.505 Q32.7167 543.651 32.7167 545.052 Q32.7167 550.017 35.9632 552.691 Q39.1779 555.332 45.2253 555.332 L64.0042 555.332 L64.0042 561.221 L28.3562 561.221 L28.3562 555.332 L33.8944 555.332 Q30.6479 553.486 29.0883 550.526 Q27.4968 547.566 27.4968 543.333 Q27.4968 542.728 27.5923 541.996 Q27.656 541.264 27.8151 540.373 L33.8307 540.341 Z" fill="#000000" fill-rule="nonzero" fill-opacity="1" /><path clip-path="url(#clip090)" d="M46.0847 517.997 Q46.0847 525.095 47.7079 527.833 Q49.3312 530.57 53.2461 530.57 Q56.3653 530.57 58.2114 528.533 Q60.0256 526.464 60.0256 522.931 Q60.0256 518.061 56.5881 515.133 Q53.1188 512.173 47.3897 512.173 L46.0847 512.173 L46.0847 517.997 M43.6657 506.316 L64.0042 506.316 L64.0042 512.173 L58.5933 512.173 Q61.8398 514.178 63.3994 517.17 Q64.9272 520.162 64.9272 524.491 Q64.9272 529.965 61.8716 533.212 Q58.7843 536.426 53.6281 536.426 Q47.6125 536.426 44.5569 532.416 Q41.5014 528.374 41.5014 520.385 L41.5014 512.173 L40.9285 512.173 Q36.8862 512.173 34.6901 514.846 Q32.4621 517.488 32.4621 522.294 Q32.4621 525.35 33.1941 528.246 Q33.9262 531.143 35.3903 533.816 L29.9795 533.816 Q28.7381 530.602 28.1334 527.578 Q27.4968 524.554 27.4968 521.69 Q27.4968 513.955 31.5072 510.136 Q35.5176 506.316 43.6657 506.316 Z" fill="#000000" fill-rule="nonzero" fill-opacity="1" /><path clip-path="url(#clip090)" d="M33.7671 470.796 L14.479 470.796 L14.479 464.939 L64.0042 464.939 L64.0042 470.796 L58.657 470.796 Q61.8398 472.642 63.3994 475.475 Q64.9272 478.275 64.9272 482.222 Q64.9272 488.683 59.771 492.757 Q54.6147 496.8 46.212 496.8 Q37.8093 496.8 32.6531 492.757 Q27.4968 488.683 27.4968 482.222 Q27.4968 478.275 29.0564 475.475 Q30.5842 472.642 33.7671 470.796 M46.212 490.752 Q52.6732 490.752 56.3653 488.11 Q60.0256 485.437 60.0256 480.79 Q60.0256 476.143 56.3653 473.469 Q52.6732 470.796 46.212 470.796 Q39.7508 470.796 36.0905 473.469 Q32.3984 476.143 32.3984 480.79 Q32.3984 485.437 36.0905 488.11 Q39.7508 490.752 46.212 490.752 Z" fill="#000000" fill-rule="nonzero" fill-opacity="1" /><path clip-path="url(#clip090)" d="M28.3562 452.876 L28.3562 447.02 L64.0042 447.02 L64.0042 452.876 L28.3562 452.876 M14.479 452.876 L14.479 447.02 L21.895 447.02 L21.895 452.876 L14.479 452.876 Z" fill="#000000" fill-rule="nonzero" fill-opacity="1" /><path clip-path="url(#clip090)" d="M44.7161 404.274 L47.5806 404.274 L47.5806 431.201 Q53.6281 430.819 56.8109 427.573 Q59.9619 424.294 59.9619 418.47 Q59.9619 415.096 59.1344 411.945 Q58.3069 408.762 56.6518 405.643 L62.1899 405.643 Q63.5267 408.794 64.227 412.104 Q64.9272 415.414 64.9272 418.82 Q64.9272 427.35 59.9619 432.347 Q54.9967 437.312 46.5303 437.312 Q37.7774 437.312 32.6531 432.602 Q27.4968 427.859 27.4968 419.838 Q27.4968 412.645 32.1438 408.476 Q36.7589 404.274 44.7161 404.274 M42.9973 410.131 Q38.1912 410.194 35.3266 412.836 Q32.4621 415.446 32.4621 419.775 Q32.4621 424.676 35.2312 427.636 Q38.0002 430.565 43.0292 431.01 L42.9973 410.131 Z" fill="#000000" fill-rule="nonzero" fill-opacity="1" /><path clip-path="url(#clip090)" d="M42.4881 365.03 L64.0042 365.03 L64.0042 370.886 L42.679 370.886 Q37.6183 370.886 35.1038 372.859 Q32.5894 374.833 32.5894 378.779 Q32.5894 383.522 35.6131 386.259 Q38.6368 388.996 43.8567 388.996 L64.0042 388.996 L64.0042 394.885 L28.3562 394.885 L28.3562 388.996 L33.8944 388.996 Q30.6797 386.896 29.0883 384.063 Q27.4968 381.198 27.4968 377.475 Q27.4968 371.332 31.3163 368.181 Q35.1038 365.03 42.4881 365.03 Z" fill="#000000" fill-rule="nonzero" fill-opacity="1" /><path clip-path="url(#clip090)" d="M18.2347 347.556 L28.3562 347.556 L28.3562 335.493 L32.9077 335.493 L32.9077 347.556 L52.2594 347.556 Q56.6199 347.556 57.8613 346.378 Q59.1026 345.169 59.1026 341.508 L59.1026 335.493 L64.0042 335.493 L64.0042 341.508 Q64.0042 348.288 61.4897 350.866 Q58.9434 353.444 52.2594 353.444 L32.9077 353.444 L32.9077 357.741 L28.3562 357.741 L28.3562 353.444 L18.2347 353.444 L18.2347 347.556 Z" fill="#000000" fill-rule="nonzero" fill-opacity="1" /><path clip-path="url(#clip090)" d="M594.012 63.9476 L594.012 47.7034 L580.644 47.7034 L580.644 40.9789 L602.113 40.9789 L602.113 66.9452 Q597.374 70.3075 591.662 72.0494 Q585.95 73.7508 579.469 73.7508 Q565.291 73.7508 557.27 65.4869 Q549.29 57.1826 549.29 42.3968 Q549.29 27.5705 557.27 19.3066 Q565.291 11.0023 579.469 11.0023 Q585.383 11.0023 590.69 12.4606 Q596.037 13.9189 600.534 16.7545 L600.534 25.464 Q595.996 21.6156 590.892 19.6712 Q585.788 17.7268 580.157 17.7268 Q569.058 17.7268 563.468 23.9246 Q557.918 30.1225 557.918 42.3968 Q557.918 54.6305 563.468 60.8284 Q569.058 67.0263 580.157 67.0263 Q584.492 67.0263 587.895 66.2971 Q591.297 65.5274 594.012 63.9476 Z" fill="#000000" fill-rule="nonzero" fill-opacity="1" /><path clip-path="url(#clip090)" d="M643.027 34.1734 Q641.772 33.4443 640.273 33.1202 Q638.815 32.7556 637.032 32.7556 Q630.713 32.7556 627.31 36.8875 Q623.948 40.9789 623.948 48.6757 L623.948 72.576 L616.454 72.576 L616.454 27.2059 L623.948 27.2059 L623.948 34.2544 Q626.297 30.1225 630.065 28.1376 Q633.832 26.1121 639.22 26.1121 Q639.989 26.1121 640.921 26.2337 Q641.853 26.3147 642.987 26.5172 L643.027 34.1734 Z" fill="#000000" fill-rule="nonzero" fill-opacity="1" /><path clip-path="url(#clip090)" d="M671.465 49.7694 Q662.431 49.7694 658.948 51.8354 Q655.464 53.9013 655.464 58.8839 Q655.464 62.8538 658.056 65.2034 Q660.689 67.5124 665.186 67.5124 Q671.384 67.5124 675.111 63.1374 Q678.878 58.7219 678.878 51.4303 L678.878 49.7694 L671.465 49.7694 M686.332 46.6907 L686.332 72.576 L678.878 72.576 L678.878 65.6895 Q676.326 69.8214 672.518 71.8063 Q668.71 73.7508 663.201 73.7508 Q656.233 73.7508 652.102 69.8619 Q648.01 65.9325 648.01 59.3701 Q648.01 51.7138 653.114 47.825 Q658.259 43.9361 668.427 43.9361 L678.878 43.9361 L678.878 43.2069 Q678.878 38.0623 675.475 35.2672 Q672.113 32.4315 665.996 32.4315 Q662.107 32.4315 658.421 33.3632 Q654.735 34.295 651.332 36.1584 L651.332 29.2718 Q655.423 27.692 659.272 26.9223 Q663.12 26.1121 666.766 26.1121 Q676.609 26.1121 681.471 31.2163 Q686.332 36.3204 686.332 46.6907 Z" fill="#000000" fill-rule="nonzero" fill-opacity="1" /><path clip-path="url(#clip090)" d="M731.54 34.0924 L731.54 9.54393 L738.993 9.54393 L738.993 72.576 L731.54 72.576 L731.54 65.7705 Q729.19 69.8214 725.585 71.8063 Q722.02 73.7508 716.997 73.7508 Q708.774 73.7508 703.589 67.1883 Q698.444 60.6258 698.444 49.9314 Q698.444 39.2371 703.589 32.6746 Q708.774 26.1121 716.997 26.1121 Q722.02 26.1121 725.585 28.0971 Q729.19 30.0415 731.54 34.0924 M706.141 49.9314 Q706.141 58.1548 709.503 62.8538 Q712.906 67.5124 718.82 67.5124 Q724.734 67.5124 728.137 62.8538 Q731.54 58.1548 731.54 49.9314 Q731.54 41.7081 728.137 37.0496 Q724.734 32.3505 718.82 32.3505 Q712.906 32.3505 709.503 37.0496 Q706.141 41.7081 706.141 49.9314 Z" fill="#000000" fill-rule="nonzero" fill-opacity="1" /><path clip-path="url(#clip090)" d="M754.346 27.2059 L761.8 27.2059 L761.8 72.576 L754.346 72.576 L754.346 27.2059 M754.346 9.54393 L761.8 9.54393 L761.8 18.9825 L754.346 18.9825 L754.346 9.54393 Z" fill="#000000" fill-rule="nonzero" fill-opacity="1" /><path clip-path="url(#clip090)" d="M816.204 48.0275 L816.204 51.6733 L781.933 51.6733 Q782.419 59.3701 786.551 63.421 Q790.723 67.4314 798.137 67.4314 Q802.431 67.4314 806.441 66.3781 Q810.492 65.3249 814.462 63.2184 L814.462 70.267 Q810.451 71.9684 806.238 72.8596 Q802.025 73.7508 797.691 73.7508 Q786.835 73.7508 780.475 67.4314 Q774.155 61.1119 774.155 50.3365 Q774.155 39.1965 780.151 32.6746 Q786.186 26.1121 796.395 26.1121 Q805.55 26.1121 810.856 32.0264 Q816.204 37.9003 816.204 48.0275 M808.75 45.84 Q808.669 39.7232 805.307 36.0774 Q801.985 32.4315 796.476 32.4315 Q790.237 32.4315 786.47 35.9558 Q782.743 39.4801 782.176 45.8805 L808.75 45.84 Z" fill="#000000" fill-rule="nonzero" fill-opacity="1" /><path clip-path="url(#clip090)" d="M866.151 45.1919 L866.151 72.576 L858.698 72.576 L858.698 45.4349 Q858.698 38.994 856.186 35.7938 Q853.675 32.5936 848.651 32.5936 Q842.616 32.5936 839.132 36.4419 Q835.648 40.2903 835.648 46.9338 L835.648 72.576 L828.154 72.576 L828.154 27.2059 L835.648 27.2059 L835.648 34.2544 Q838.322 30.163 841.927 28.1376 Q845.573 26.1121 850.312 26.1121 Q858.131 26.1121 862.141 30.9732 Q866.151 35.7938 866.151 45.1919 Z" fill="#000000" fill-rule="nonzero" fill-opacity="1" /><path clip-path="url(#clip090)" d="M888.391 14.324 L888.391 27.2059 L903.744 27.2059 L903.744 32.9987 L888.391 32.9987 L888.391 57.6282 Q888.391 63.1779 889.89 64.7578 Q891.429 66.3376 896.087 66.3376 L903.744 66.3376 L903.744 72.576 L896.087 72.576 Q887.459 72.576 884.178 69.3758 Q880.897 66.1351 880.897 57.6282 L880.897 32.9987 L875.428 32.9987 L875.428 27.2059 L880.897 27.2059 L880.897 14.324 L888.391 14.324 Z" fill="#000000" fill-rule="nonzero" fill-opacity="1" /><path clip-path="url(#clip090)" d="M909.78 46.5287 L931.614 46.5287 L931.614 53.1722 L909.78 53.1722 L909.78 46.5287 Z" fill="#000000" fill-rule="nonzero" fill-opacity="1" /><path clip-path="url(#clip090)" d="M976.052 49.9314 Q976.052 41.7081 972.65 37.0496 Q969.287 32.3505 963.373 32.3505 Q957.459 32.3505 954.056 37.0496 Q950.694 41.7081 950.694 49.9314 Q950.694 58.1548 954.056 62.8538 Q957.459 67.5124 963.373 67.5124 Q969.287 67.5124 972.65 62.8538 Q976.052 58.1548 976.052 49.9314 M950.694 34.0924 Q953.043 30.0415 956.608 28.0971 Q960.213 26.1121 965.196 26.1121 Q973.46 26.1121 978.604 32.6746 Q983.79 39.2371 983.79 49.9314 Q983.79 60.6258 978.604 67.1883 Q973.46 73.7508 965.196 73.7508 Q960.213 73.7508 956.608 71.8063 Q953.043 69.8214 950.694 65.7705 L950.694 72.576 L943.199 72.576 L943.199 9.54393 L950.694 9.54393 L950.694 34.0924 Z" fill="#000000" fill-rule="nonzero" fill-opacity="1" /><path clip-path="url(#clip090)" d="M1016.76 49.7694 Q1007.73 49.7694 1004.25 51.8354 Q1000.76 53.9013 1000.76 58.8839 Q1000.76 62.8538 1003.36 65.2034 Q1005.99 67.5124 1010.49 67.5124 Q1016.68 67.5124 1020.41 63.1374 Q1024.18 58.7219 1024.18 51.4303 L1024.18 49.7694 L1016.76 49.7694 M1031.63 46.6907 L1031.63 72.576 L1024.18 72.576 L1024.18 65.6895 Q1021.63 69.8214 1017.82 71.8063 Q1014.01 73.7508 1008.5 73.7508 Q1001.53 73.7508 997.401 69.8619 Q993.309 65.9325 993.309 59.3701 Q993.309 51.7138 998.413 47.825 Q1003.56 43.9361 1013.73 43.9361 L1024.18 43.9361 L1024.18 43.2069 Q1024.18 38.0623 1020.77 35.2672 Q1017.41 32.4315 1011.3 32.4315 Q1007.41 32.4315 1003.72 33.3632 Q1000.03 34.295 996.631 36.1584 L996.631 29.2718 Q1000.72 27.692 1004.57 26.9223 Q1008.42 26.1121 1012.06 26.1121 Q1021.91 26.1121 1026.77 31.2163 Q1031.63 36.3204 1031.63 46.6907 Z" fill="#000000" fill-rule="nonzero" fill-opacity="1" /><path clip-path="url(#clip090)" d="M1075.91 28.5427 L1075.91 35.5912 Q1072.75 33.9709 1069.34 33.1607 Q1065.94 32.3505 1062.3 32.3505 Q1056.75 32.3505 1053.95 34.0519 Q1051.2 35.7533 1051.2 39.156 Q1051.2 41.7486 1053.18 43.2475 Q1055.17 44.7058 1061.16 46.0426 L1063.71 46.6097 Q1071.65 48.3111 1074.98 51.4303 Q1078.34 54.509 1078.34 60.0587 Q1078.34 66.3781 1073.31 70.0644 Q1068.33 73.7508 1059.58 73.7508 Q1055.94 73.7508 1051.97 73.0216 Q1048.04 72.3329 1043.66 70.9151 L1043.66 63.2184 Q1047.79 65.3654 1051.8 66.4591 Q1055.81 67.5124 1059.74 67.5124 Q1065.01 67.5124 1067.85 65.73 Q1070.68 63.9071 1070.68 60.6258 Q1070.68 57.5877 1068.62 55.9673 Q1066.59 54.3469 1059.66 52.8481 L1057.07 52.2405 Q1050.14 50.7821 1047.06 47.7845 Q1043.99 44.7463 1043.99 39.4801 Q1043.99 33.0797 1048.52 29.5959 Q1053.06 26.1121 1061.4 26.1121 Q1065.54 26.1121 1069.18 26.7198 Q1072.83 27.3274 1075.91 28.5427 Z" fill="#000000" fill-rule="nonzero" fill-opacity="1" /><path clip-path="url(#clip090)" d="M1129.01 48.0275 L1129.01 51.6733 L1094.74 51.6733 Q1095.23 59.3701 1099.36 63.421 Q1103.53 67.4314 1110.95 67.4314 Q1115.24 67.4314 1119.25 66.3781 Q1123.3 65.3249 1127.27 63.2184 L1127.27 70.267 Q1123.26 71.9684 1119.05 72.8596 Q1114.84 73.7508 1110.5 73.7508 Q1099.65 73.7508 1093.29 67.4314 Q1086.97 61.1119 1086.97 50.3365 Q1086.97 39.1965 1092.96 32.6746 Q1099 26.1121 1109.21 26.1121 Q1118.36 26.1121 1123.67 32.0264 Q1129.01 37.9003 1129.01 48.0275 M1121.56 45.84 Q1121.48 39.7232 1118.12 36.0774 Q1114.8 32.4315 1109.29 32.4315 Q1103.05 32.4315 1099.28 35.9558 Q1095.55 39.4801 1094.99 45.8805 L1121.56 45.84 Z" fill="#000000" fill-rule="nonzero" fill-opacity="1" /><path clip-path="url(#clip090)" d="M1171.1 34.0924 L1171.1 9.54393 L1178.56 9.54393 L1178.56 72.576 L1171.1 72.576 L1171.1 65.7705 Q1168.75 69.8214 1165.15 71.8063 Q1161.58 73.7508 1156.56 73.7508 Q1148.34 73.7508 1143.15 67.1883 Q1138.01 60.6258 1138.01 49.9314 Q1138.01 39.2371 1143.15 32.6746 Q1148.34 26.1121 1156.56 26.1121 Q1161.58 26.1121 1165.15 28.0971 Q1168.75 30.0415 1171.1 34.0924 M1145.7 49.9314 Q1145.7 58.1548 1149.07 62.8538 Q1152.47 67.5124 1158.38 67.5124 Q1164.3 67.5124 1167.7 62.8538 Q1171.1 58.1548 1171.1 49.9314 Q1171.1 41.7081 1167.7 37.0496 Q1164.3 32.3505 1158.38 32.3505 Q1152.47 32.3505 1149.07 37.0496 Q1145.7 41.7081 1145.7 49.9314 Z" fill="#000000" fill-rule="nonzero" fill-opacity="1" /><path clip-path="url(#clip090)" d="M1220.61 12.096 L1255.36 12.096 L1255.36 18.9825 L1228.79 18.9825 L1228.79 36.8065 L1252.77 36.8065 L1252.77 43.6931 L1228.79 43.6931 L1228.79 72.576 L1220.61 72.576 L1220.61 12.096 Z" fill="#000000" fill-rule="nonzero" fill-opacity="1" /><path clip-path="url(#clip090)" d="M1302.27 48.0275 L1302.27 51.6733 L1268 51.6733 Q1268.49 59.3701 1272.62 63.421 Q1276.79 67.4314 1284.2 67.4314 Q1288.5 67.4314 1292.51 66.3781 Q1296.56 65.3249 1300.53 63.2184 L1300.53 70.267 Q1296.52 71.9684 1292.31 72.8596 Q1288.09 73.7508 1283.76 73.7508 Q1272.9 73.7508 1266.54 67.4314 Q1260.22 61.1119 1260.22 50.3365 Q1260.22 39.1965 1266.22 32.6746 Q1272.25 26.1121 1282.46 26.1121 Q1291.62 26.1121 1296.92 32.0264 Q1302.27 37.9003 1302.27 48.0275 M1294.82 45.84 Q1294.74 39.7232 1291.37 36.0774 Q1288.05 32.4315 1282.54 32.4315 Q1276.31 32.4315 1272.54 35.9558 Q1268.81 39.4801 1268.24 45.8805 L1294.82 45.84 Z" fill="#000000" fill-rule="nonzero" fill-opacity="1" /><path clip-path="url(#clip090)" d="M1335.12 49.7694 Q1326.09 49.7694 1322.61 51.8354 Q1319.12 53.9013 1319.12 58.8839 Q1319.12 62.8538 1321.72 65.2034 Q1324.35 67.5124 1328.85 67.5124 Q1335.04 67.5124 1338.77 63.1374 Q1342.54 58.7219 1342.54 51.4303 L1342.54 49.7694 L1335.12 49.7694 M1349.99 46.6907 L1349.99 72.576 L1342.54 72.576 L1342.54 65.6895 Q1339.99 69.8214 1336.18 71.8063 Q1332.37 73.7508 1326.86 73.7508 Q1319.89 73.7508 1315.76 69.8619 Q1311.67 65.9325 1311.67 59.3701 Q1311.67 51.7138 1316.77 47.825 Q1321.92 43.9361 1332.09 43.9361 L1342.54 43.9361 L1342.54 43.2069 Q1342.54 38.0623 1339.13 35.2672 Q1335.77 32.4315 1329.66 32.4315 Q1325.77 32.4315 1322.08 33.3632 Q1318.39 34.295 1314.99 36.1584 L1314.99 29.2718 Q1319.08 27.692 1322.93 26.9223 Q1326.78 26.1121 1330.43 26.1121 Q1340.27 26.1121 1345.13 31.2163 Q1349.99 36.3204 1349.99 46.6907 Z" fill="#000000" fill-rule="nonzero" fill-opacity="1" /><path clip-path="url(#clip090)" d="M1372.72 14.324 L1372.72 27.2059 L1388.07 27.2059 L1388.07 32.9987 L1372.72 32.9987 L1372.72 57.6282 Q1372.72 63.1779 1374.22 64.7578 Q1375.76 66.3376 1380.41 66.3376 L1388.07 66.3376 L1388.07 72.576 L1380.41 72.576 Q1371.79 72.576 1368.5 69.3758 Q1365.22 66.1351 1365.22 57.6282 L1365.22 32.9987 L1359.75 32.9987 L1359.75 27.2059 L1365.22 27.2059 L1365.22 14.324 L1372.72 14.324 Z" fill="#000000" fill-rule="nonzero" fill-opacity="1" /><path clip-path="url(#clip090)" d="M1397.1 54.671 L1397.1 27.2059 L1404.56 27.2059 L1404.56 54.3874 Q1404.56 60.8284 1407.07 64.0691 Q1409.58 67.2693 1414.6 67.2693 Q1420.64 67.2693 1424.12 63.421 Q1427.65 59.5726 1427.65 52.9291 L1427.65 27.2059 L1435.1 27.2059 L1435.1 72.576 L1427.65 72.576 L1427.65 65.6084 Q1424.93 69.7404 1421.33 71.7658 Q1417.76 73.7508 1413.02 73.7508 Q1405.21 73.7508 1401.15 68.8897 Q1397.1 64.0286 1397.1 54.671 M1415.86 26.1121 L1415.86 26.1121 Z" fill="#000000" fill-rule="nonzero" fill-opacity="1" /><path clip-path="url(#clip090)" d="M1476.74 34.1734 Q1475.49 33.4443 1473.99 33.1202 Q1472.53 32.7556 1470.75 32.7556 Q1464.43 32.7556 1461.03 36.8875 Q1457.66 40.9789 1457.66 48.6757 L1457.66 72.576 L1450.17 72.576 L1450.17 27.2059 L1457.66 27.2059 L1457.66 34.2544 Q1460.01 30.1225 1463.78 28.1376 Q1467.55 26.1121 1472.94 26.1121 Q1473.71 26.1121 1474.64 26.2337 Q1475.57 26.3147 1476.7 26.5172 L1476.74 34.1734 Z" fill="#000000" fill-rule="nonzero" fill-opacity="1" /><path clip-path="url(#clip090)" d="M1521.55 48.0275 L1521.55 51.6733 L1487.28 51.6733 Q1487.76 59.3701 1491.89 63.421 Q1496.07 67.4314 1503.48 67.4314 Q1507.77 67.4314 1511.78 66.3781 Q1515.84 65.3249 1519.81 63.2184 L1519.81 70.267 Q1515.79 71.9684 1511.58 72.8596 Q1507.37 73.7508 1503.03 73.7508 Q1492.18 73.7508 1485.82 67.4314 Q1479.5 61.1119 1479.5 50.3365 Q1479.5 39.1965 1485.49 32.6746 Q1491.53 26.1121 1501.74 26.1121 Q1510.89 26.1121 1516.2 32.0264 Q1521.55 37.9003 1521.55 48.0275 M1514.09 45.84 Q1514.01 39.7232 1510.65 36.0774 Q1507.33 32.4315 1501.82 32.4315 Q1495.58 32.4315 1491.81 35.9558 Q1488.09 39.4801 1487.52 45.8805 L1514.09 45.84 Z" fill="#000000" fill-rule="nonzero" fill-opacity="1" /><path clip-path="url(#clip090)" d="M1560.48 12.096 L1568.66 12.096 L1568.66 72.576 L1560.48 72.576 L1560.48 12.096 Z" fill="#000000" fill-rule="nonzero" fill-opacity="1" /><path clip-path="url(#clip090)" d="M1619.94 35.9153 Q1622.74 30.8922 1626.63 28.5022 Q1630.52 26.1121 1635.78 26.1121 Q1642.87 26.1121 1646.72 31.0947 Q1650.57 36.0368 1650.57 45.1919 L1650.57 72.576 L1643.07 72.576 L1643.07 45.4349 Q1643.07 38.913 1640.77 35.7533 Q1638.46 32.5936 1633.72 32.5936 Q1627.92 32.5936 1624.56 36.4419 Q1621.2 40.2903 1621.2 46.9338 L1621.2 72.576 L1613.71 72.576 L1613.71 45.4349 Q1613.71 38.8725 1611.4 35.7533 Q1609.09 32.5936 1604.27 32.5936 Q1598.55 32.5936 1595.19 36.4824 Q1591.83 40.3308 1591.83 46.9338 L1591.83 72.576 L1584.34 72.576 L1584.34 27.2059 L1591.83 27.2059 L1591.83 34.2544 Q1594.38 30.082 1597.95 28.0971 Q1601.51 26.1121 1606.41 26.1121 Q1611.36 26.1121 1614.8 28.6237 Q1618.28 31.1352 1619.94 35.9153 Z" fill="#000000" fill-rule="nonzero" fill-opacity="1" /><path clip-path="url(#clip090)" d="M1672.65 65.7705 L1672.65 89.8329 L1665.15 89.8329 L1665.15 27.2059 L1672.65 27.2059 L1672.65 34.0924 Q1675 30.0415 1678.56 28.0971 Q1682.17 26.1121 1687.15 26.1121 Q1695.41 26.1121 1700.56 32.6746 Q1705.74 39.2371 1705.74 49.9314 Q1705.74 60.6258 1700.56 67.1883 Q1695.41 73.7508 1687.15 73.7508 Q1682.17 73.7508 1678.56 71.8063 Q1675 69.8214 1672.65 65.7705 M1698 49.9314 Q1698 41.7081 1694.6 37.0496 Q1691.24 32.3505 1685.33 32.3505 Q1679.41 32.3505 1676.01 37.0496 Q1672.65 41.7081 1672.65 49.9314 Q1672.65 58.1548 1676.01 62.8538 Q1679.41 67.5124 1685.33 67.5124 Q1691.24 67.5124 1694.6 62.8538 Q1698 58.1548 1698 49.9314 Z" fill="#000000" fill-rule="nonzero" fill-opacity="1" /><path clip-path="url(#clip090)" d="M1735.68 32.4315 Q1729.68 32.4315 1726.2 37.1306 Q1722.71 41.7891 1722.71 49.9314 Q1722.71 58.0738 1726.16 62.7728 Q1729.64 67.4314 1735.68 67.4314 Q1741.63 67.4314 1745.12 62.7323 Q1748.6 58.0333 1748.6 49.9314 Q1748.6 41.8701 1745.12 37.1711 Q1741.63 32.4315 1735.68 32.4315 M1735.68 26.1121 Q1745.4 26.1121 1750.95 32.4315 Q1756.5 38.7509 1756.5 49.9314 Q1756.5 61.0714 1750.95 67.4314 Q1745.4 73.7508 1735.68 73.7508 Q1725.92 73.7508 1720.37 67.4314 Q1714.86 61.0714 1714.86 49.9314 Q1714.86 38.7509 1720.37 32.4315 Q1725.92 26.1121 1735.68 26.1121 Z" fill="#000000" fill-rule="nonzero" fill-opacity="1" /><path clip-path="url(#clip090)" d="M1795.15 34.1734 Q1793.89 33.4443 1792.39 33.1202 Q1790.93 32.7556 1789.15 32.7556 Q1782.83 32.7556 1779.43 36.8875 Q1776.07 40.9789 1776.07 48.6757 L1776.07 72.576 L1768.57 72.576 L1768.57 27.2059 L1776.07 27.2059 L1776.07 34.2544 Q1778.41 30.1225 1782.18 28.1376 Q1785.95 26.1121 1791.34 26.1121 Q1792.11 26.1121 1793.04 26.2337 Q1793.97 26.3147 1795.1 26.5172 L1795.15 34.1734 Z" fill="#000000" fill-rule="nonzero" fill-opacity="1" /><path clip-path="url(#clip090)" d="M1810.34 14.324 L1810.34 27.2059 L1825.69 27.2059 L1825.69 32.9987 L1810.34 32.9987 L1810.34 57.6282 Q1810.34 63.1779 1811.83 64.7578 Q1813.37 66.3376 1818.03 66.3376 L1825.69 66.3376 L1825.69 72.576 L1818.03 72.576 Q1809.4 72.576 1806.12 69.3758 Q1802.84 66.1351 1802.84 57.6282 L1802.84 32.9987 L1797.37 32.9987 L1797.37 27.2059 L1802.84 27.2059 L1802.84 14.324 L1810.34 14.324 Z" fill="#000000" fill-rule="nonzero" fill-opacity="1" /><path clip-path="url(#clip090)" d="M1856.11 49.7694 Q1847.08 49.7694 1843.59 51.8354 Q1840.11 53.9013 1840.11 58.8839 Q1840.11 62.8538 1842.7 65.2034 Q1845.34 67.5124 1849.83 67.5124 Q1856.03 67.5124 1859.76 63.1374 Q1863.52 58.7219 1863.52 51.4303 L1863.52 49.7694 L1856.11 49.7694 M1870.98 46.6907 L1870.98 72.576 L1863.52 72.576 L1863.52 65.6895 Q1860.97 69.8214 1857.16 71.8063 Q1853.36 73.7508 1847.85 73.7508 Q1840.88 73.7508 1836.75 69.8619 Q1832.66 65.9325 1832.66 59.3701 Q1832.66 51.7138 1837.76 47.825 Q1842.91 43.9361 1853.07 43.9361 L1863.52 43.9361 L1863.52 43.2069 Q1863.52 38.0623 1860.12 35.2672 Q1856.76 32.4315 1850.64 32.4315 Q1846.75 32.4315 1843.07 33.3632 Q1839.38 34.295 1835.98 36.1584 L1835.98 29.2718 Q1840.07 27.692 1843.92 26.9223 Q1847.77 26.1121 1851.41 26.1121 Q1861.26 26.1121 1866.12 31.2163 Q1870.98 36.3204 1870.98 46.6907 Z" fill="#000000" fill-rule="nonzero" fill-opacity="1" /><path clip-path="url(#clip090)" d="M1924.04 45.1919 L1924.04 72.576 L1916.59 72.576 L1916.59 45.4349 Q1916.59 38.994 1914.08 35.7938 Q1911.57 32.5936 1906.55 32.5936 Q1900.51 32.5936 1897.03 36.4419 Q1893.54 40.2903 1893.54 46.9338 L1893.54 72.576 L1886.05 72.576 L1886.05 27.2059 L1893.54 27.2059 L1893.54 34.2544 Q1896.22 30.163 1899.82 28.1376 Q1903.47 26.1121 1908.21 26.1121 Q1916.02 26.1121 1920.03 30.9732 Q1924.04 35.7938 1924.04 45.1919 Z" fill="#000000" fill-rule="nonzero" fill-opacity="1" /><path clip-path="url(#clip090)" d="M1971.56 28.9478 L1971.56 35.9153 Q1968.4 34.1734 1965.2 33.3227 Q1962.04 32.4315 1958.8 32.4315 Q1951.55 32.4315 1947.54 37.0496 Q1943.53 41.6271 1943.53 49.9314 Q1943.53 58.2358 1947.54 62.8538 Q1951.55 67.4314 1958.8 67.4314 Q1962.04 67.4314 1965.2 66.5807 Q1968.4 65.6895 1971.56 63.9476 L1971.56 70.8341 Q1968.44 72.2924 1965.08 73.0216 Q1961.76 73.7508 1957.99 73.7508 Q1947.74 73.7508 1941.71 67.3098 Q1935.67 60.8689 1935.67 49.9314 Q1935.67 38.832 1941.75 32.472 Q1947.86 26.1121 1958.48 26.1121 Q1961.92 26.1121 1965.2 26.8413 Q1968.48 27.5299 1971.56 28.9478 Z" fill="#000000" fill-rule="nonzero" fill-opacity="1" /><path clip-path="url(#clip090)" d="M2023.33 48.0275 L2023.33 51.6733 L1989.06 51.6733 Q1989.55 59.3701 1993.68 63.421 Q1997.85 67.4314 2005.27 67.4314 Q2009.56 67.4314 2013.57 66.3781 Q2017.62 65.3249 2021.59 63.2184 L2021.59 70.267 Q2017.58 71.9684 2013.37 72.8596 Q2009.15 73.7508 2004.82 73.7508 Q1993.96 73.7508 1987.6 67.4314 Q1981.28 61.1119 1981.28 50.3365 Q1981.28 39.1965 1987.28 32.6746 Q1993.32 26.1121 2003.52 26.1121 Q2012.68 26.1121 2017.99 32.0264 Q2023.33 37.9003 2023.33 48.0275 M2015.88 45.84 Q2015.8 39.7232 2012.44 36.0774 Q2009.11 32.4315 2003.6 32.4315 Q1997.37 32.4315 1993.6 35.9558 Q1989.87 39.4801 1989.31 45.8805 L2015.88 45.84 Z" fill="#000000" fill-rule="nonzero" fill-opacity="1" /><path clip-path="url(#clip092)" d="M337.179 406.751 L337.179 1423.18 L531.873 1423.18 L531.873 406.751 L337.179 406.751 L337.179 406.751  Z" fill="#009af9" fill-rule="evenodd" fill-opacity="1"/>
<polyline clip-path="url(#clip092)" style="stroke:#000000; stroke-linecap:round; stroke-linejoin:round; stroke-width:4; stroke-opacity:1; fill:none" points="337.179,406.751 337.179,1423.18 531.873,1423.18 531.873,406.751 337.179,406.751 "/>
<path clip-path="url(#clip092)" d="M580.546 613.89 L580.546 1423.18 L775.24 1423.18 L775.24 613.89 L580.546 613.89 L580.546 613.89  Z" fill="#009af9" fill-rule="evenodd" fill-opacity="1"/>
<polyline clip-path="url(#clip092)" style="stroke:#000000; stroke-linecap:round; stroke-linejoin:round; stroke-width:4; stroke-opacity:1; fill:none" points="580.546,613.89 580.546,1423.18 775.24,1423.18 775.24,613.89 580.546,613.89 "/>
<path clip-path="url(#clip092)" d="M823.913 123.472 L823.913 1423.18 L1018.61 1423.18 L1018.61 123.472 L823.913 123.472 L823.913 123.472  Z" fill="#009af9" fill-rule="evenodd" fill-opacity="1"/>
<polyline clip-path="url(#clip092)" style="stroke:#000000; stroke-linecap:round; stroke-linejoin:round; stroke-width:4; stroke-opacity:1; fill:none" points="823.913,123.472 823.913,1423.18 1018.61,1423.18 1018.61,123.472 823.913,123.472 "/>
<path clip-path="url(#clip092)" d="M1067.28 612.569 L1067.28 1423.18 L1261.97 1423.18 L1261.97 612.569 L1067.28 612.569 L1067.28 612.569  Z" fill="#009af9" fill-rule="evenodd" fill-opacity="1"/>
<polyline clip-path="url(#clip092)" style="stroke:#000000; stroke-linecap:round; stroke-linejoin:round; stroke-width:4; stroke-opacity:1; fill:none" points="1067.28,612.569 1067.28,1423.18 1261.97,1423.18 1261.97,612.569 1067.28,612.569 "/>
<path clip-path="url(#clip092)" d="M1310.65 529.714 L1310.65 1423.18 L1505.34 1423.18 L1505.34 529.714 L1310.65 529.714 L1310.65 529.714  Z" fill="#009af9" fill-rule="evenodd" fill-opacity="1"/>
<polyline clip-path="url(#clip092)" style="stroke:#000000; stroke-linecap:round; stroke-linejoin:round; stroke-width:4; stroke-opacity:1; fill:none" points="1310.65,529.714 1310.65,1423.18 1505.34,1423.18 1505.34,529.714 1310.65,529.714 "/>
<path clip-path="url(#clip092)" d="M1554.02 1167.21 L1554.02 1423.18 L1748.71 1423.18 L1748.71 1167.21 L1554.02 1167.21 L1554.02 1167.21  Z" fill="#009af9" fill-rule="evenodd" fill-opacity="1"/>
<polyline clip-path="url(#clip092)" style="stroke:#000000; stroke-linecap:round; stroke-linejoin:round; stroke-width:4; stroke-opacity:1; fill:none" points="1554.02,1167.21 1554.02,1423.18 1748.71,1423.18 1748.71,1167.21 1554.02,1167.21 "/>
<path clip-path="url(#clip092)" d="M1797.38 1421.35 L1797.38 1423.18 L1992.08 1423.18 L1992.08 1421.35 L1797.38 1421.35 L1797.38 1421.35  Z" fill="#009af9" fill-rule="evenodd" fill-opacity="1"/>
<polyline clip-path="url(#clip092)" style="stroke:#000000; stroke-linecap:round; stroke-linejoin:round; stroke-width:4; stroke-opacity:1; fill:none" points="1797.38,1421.35 1797.38,1423.18 1992.08,1423.18 1992.08,1421.35 1797.38,1421.35 "/>
<path clip-path="url(#clip092)" d="M2040.75 1421.2 L2040.75 1423.18 L2235.44 1423.18 L2235.44 1421.2 L2040.75 1421.2 L2040.75 1421.2  Z" fill="#009af9" fill-rule="evenodd" fill-opacity="1"/>
<polyline clip-path="url(#clip092)" style="stroke:#000000; stroke-linecap:round; stroke-linejoin:round; stroke-width:4; stroke-opacity:1; fill:none" points="2040.75,1421.2 2040.75,1423.18 2235.44,1423.18 2235.44,1421.2 2040.75,1421.2 "/>
<circle clip-path="url(#clip092)" style="fill:#009af9; stroke:none; fill-opacity:0" cx="434.526" cy="406.751" r="2"/>
<circle clip-path="url(#clip092)" style="fill:#009af9; stroke:none; fill-opacity:0" cx="677.893" cy="613.89" r="2"/>
<circle clip-path="url(#clip092)" style="fill:#009af9; stroke:none; fill-opacity:0" cx="921.26" cy="123.472" r="2"/>
<circle clip-path="url(#clip092)" style="fill:#009af9; stroke:none; fill-opacity:0" cx="1164.63" cy="612.569" r="2"/>
<circle clip-path="url(#clip092)" style="fill:#009af9; stroke:none; fill-opacity:0" cx="1407.99" cy="529.714" r="2"/>
<circle clip-path="url(#clip092)" style="fill:#009af9; stroke:none; fill-opacity:0" cx="1651.36" cy="1167.21" r="2"/>
<circle clip-path="url(#clip092)" style="fill:#009af9; stroke:none; fill-opacity:0" cx="1894.73" cy="1421.35" r="2"/>
<circle clip-path="url(#clip092)" style="fill:#009af9; stroke:none; fill-opacity:0" cx="2138.1" cy="1421.2" r="2"/>
</svg>
